<?xml version="1.0" encoding="utf-8"?><svg xmlns="http://www.w3.org/2000/svg" xmlns:xlink="http://www.w3.org/1999/xlink" width="1366" height="625" preserveAspectRatio="xMidYMid" viewBox="0 0 1366 625" style="z-index:1;margin-right:-2px;display:block;background-repeat-y:initial;background-repeat-x:initial;background-color:rgb(7, 6, 22);animation-play-state:paused" ><g transform="translate(683,312.5) scale(1,1) translate(-683,-312.5)" style="transform:matrix(1, 0, 0, 1, 0, 0);animation-play-state:paused" ><defs style="animation-play-state:paused" ><path id="path-0ictgyise5u-1" d="M-35 -35L35 -35L35 35L-35 35Z" fill="none" stroke="inherit" stroke-width="4.333333333333334" transform="scale(0.3)" style="transform:matrix(0.3, 0, 0, 0.3, 0, 0);animation-play-state:paused" ></path>

  
<path id="path-0ictgyise5u-2" d="M0 -37A37 37 0 0 1 0 37A37 37 0 0 1 0 -37" fill="none" stroke="inherit" stroke-width="4.333333333333334" transform="scale(0.3)" style="transform:matrix(0.3, 0, 0, 0.3, 0, 0);animation-play-state:paused" ></path>

  
<path id="path-0ictgyise5u-3" d="M0 -34.641L40 34.641L-40 34.641Z" fill="none" stroke="inherit" stroke-width="4.333333333333334" transform="scale(0.3)" style="transform:matrix(0.3, 0, 0, 0.3, 0, 0);animation-play-state:paused" ></path></defs>
<path id="path0" d="M 50.17602123260659 404.9978257681895
c 0 25.536922630198134 -6.248395962708053 7.33507352143989 -13.583469484147944 7.33507352143989
S 23.009082264310702 430.53474839838765 23.009082264310702 404.9978257681895
s 6.248395962708053 -7.33507352143989 13.583469484147944 -7.33507352143989
S 50.17602123260659 379.46090313799135 50.17602123260659 404.9978257681895
z" fill="none" stroke="none" style="animation-play-state:paused" ></path>


<use xlink:href="#path-0ictgyise5u-2" x="0" y="0" stroke="#bbddff" transform="translate(44.26309585571289 416.87200927734375)" style="animation-play-state:paused" ></use>
<path id="path1" d="M 193.67021665434154 558.8573823723893
c 0 55.76076018868767 -13.643590258934216 16.01638856483582 -29.659978823770036 16.01638856483582
S 134.35025900680145 614.618142561077 134.35025900680145 558.8573823723893
s 13.643590258934216 -16.01638856483582 29.659978823770036 -16.01638856483582
S 193.67021665434154 503.0966221837017 193.67021665434154 558.8573823723893
z" fill="none" stroke="none" style="animation-play-state:paused" ></path>


<use xlink:href="#path-0ictgyise5u-1" x="0" y="0" stroke="#bbddff" transform="translate(191.6402587890625 583.8268432617188)" style="animation-play-state:paused" ></use>
<path id="path2" d="M 252.7125240088916 436.5383883653065
c 0 28.765938339062853 -7.038474274451548 8.262556756964862 -15.30103103141641 8.262556756964862
S 222.11046194605876 465.3043267043694 222.11046194605876 436.5383883653065
s 7.038474274451548 -8.262556756964862 15.30103103141641 -8.262556756964862
S 252.7125240088916 407.77245002624363 252.7125240088916 436.5383883653065
z" fill="none" stroke="none" style="animation-play-state:paused" ></path>


<use xlink:href="#path-0ictgyise5u-3" x="0" y="0" stroke="#bbddff" transform="translate(240.71348571777344 445.77044677734375)" style="animation-play-state:paused" ></use>
<path id="path3" d="M 312.5632237091088 99.58066800103586
c 0 19.16779189544206 -4.689991633991142 5.505642352946125 -10.195633986937267 5.505642352946125
S 292.1719557352343 118.74845989647793 292.1719557352343 99.58066800103586
s 4.689991633991142 -5.505642352946125 10.195633986937267 -5.505642352946125
S 312.5632237091088 80.4128761055938 312.5632237091088 99.58066800103586
z" fill="none" stroke="none" style="animation-play-state:paused" ></path>


<use xlink:href="#path-0ictgyise5u-2" x="0" y="0" stroke="#bbddff" transform="translate(312.0920715332031 107.2170639038086)" style="animation-play-state:paused" ></use>
<path id="path4" d="M 384.02373533335157 68.87179394302579
c 0 57.625848617181575 -14.099941682927405 16.552105453871302 -30.652047136798707 16.552105453871302
S 322.7196410597541 126.49764256020737 322.7196410597541 68.87179394302579
s 14.099941682927405 -16.552105453871302 30.652047136798707 -16.552105453871302
S 384.02373533335157 11.245945325844218 384.02373533335157 68.87179394302579
z" fill="none" stroke="none" style="animation-play-state:paused" ></path>


<use xlink:href="#path-0ictgyise5u-2" x="0" y="0" stroke="#aabbcc" transform="translate(383.3449401855469 86.54462432861328)" style="animation-play-state:paused" ></use>
<path id="path5" d="M 432.1181287896479 172.80102301639326
c 0 38.610512366118584 -9.447253025752419 11.090253551970232 -20.537506577722652 11.090253551970232
S 391.04311563420265 211.41153538251183 391.04311563420265 172.80102301639326
s 9.447253025752419 -11.090253551970232 20.537506577722652 -11.090253551970232
S 432.1181287896479 134.1905106502747 432.1181287896479 172.80102301639326
z" fill="none" stroke="none" style="animation-play-state:paused" ></path>


<use xlink:href="#path-0ictgyise5u-3" x="0" y="0" stroke="#aabbcc" transform="translate(394.09375 192.99313354492188)" style="animation-play-state:paused" ></use>
<path id="path6" d="M 536.6116716060338 496.2629991226682
c 0 22.657974438678966 -5.5439724690384695 6.508141594088639 -12.052114063127108 6.508141594088639
S 512.5074434797797 518.9209735613472 512.5074434797797 496.2629991226682
s 5.5439724690384695 -6.508141594088639 12.052114063127108 -6.508141594088639
S 536.6116716060338 473.6050246839892 536.6116716060338 496.2629991226682
z" fill="none" stroke="none" style="animation-play-state:paused" ></path>


<use xlink:href="#path-0ictgyise5u-1" x="0" y="0" stroke="#bbddff" transform="translate(528.1680297851562 504.16766357421875)" style="animation-play-state:paused" ></use>
<path id="path7" d="M 601.5404943516852 585.2976135697005
c 0 46.12795958849508 -11.286628409950923 13.249520307333695 -24.536148717284618 13.249520307333695
S 552.468196917116 631.4255731581956 552.468196917116 585.2976135697005
s 11.286628409950923 -13.249520307333695 24.536148717284618 -13.249520307333695
S 601.5404943516852 539.1696539812054 601.5404943516852 585.2976135697005
z" fill="none" stroke="none" style="animation-play-state:paused" ></path>


<use xlink:href="#path-0ictgyise5u-1" x="0" y="0" stroke="#bbddff" transform="translate(601.4490966796875 591.8872680664062)" style="animation-play-state:paused" ></use>
<path id="path8" d="M 686.8854996512259 381.788306619513
c 0 31.730680437786475 -7.763889894352009 9.114131615108882 -16.87802150946089 9.114131615108882
S 653.1294566323043 413.51898705729946 653.1294566323043 381.788306619513
s 7.763889894352009 -9.114131615108882 16.87802150946089 -9.114131615108882
S 686.8854996512259 350.0576261817265 686.8854996512259 381.788306619513
z" fill="none" stroke="none" style="animation-play-state:paused" ></path>


<use xlink:href="#path-0ictgyise5u-3" x="0" y="0" stroke="#bbddff" transform="translate(665.8314819335938 392.28192138671875)" style="animation-play-state:paused" ></use>
<path id="path9" d="M 731.6078422975916 206.16530364842285
c 0 33.41846208701685 -8.17685774469561 9.598919961164414 -17.775777705860026 9.598919961164414
S 696.0562868858715 239.5837657354397 696.0562868858715 206.16530364842285
s 8.17685774469561 -9.598919961164414 17.775777705860026 -9.598919961164414
S 731.6078422975916 172.746841561406 731.6078422975916 206.16530364842285
z" fill="none" stroke="none" style="animation-play-state:paused" ></path>


<use xlink:href="#path-0ictgyise5u-2" x="0" y="0" stroke="#bbddff" transform="translate(706.6692504882812 219.2386474609375)" style="animation-play-state:paused" ></use>
<path id="path10" d="M 848.3699150037772 357.8093354329815
c 0 59.52069530040479 -14.563574382013936 17.096369926712015 -31.659944308725947 17.096369926712015
S 785.0500263863254 417.3300307333863 785.0500263863254 357.8093354329815
s 14.563574382013936 -17.096369926712015 31.659944308725947 -17.096369926712015
S 848.3699150037772 298.28864013257675 848.3699150037772 357.8093354329815
z" fill="none" stroke="none" style="animation-play-state:paused" ></path>


<use xlink:href="#path-0ictgyise5u-3" x="0" y="0" stroke="#bbddff" transform="translate(785.4463500976562 372.3146057128906)" style="animation-play-state:paused" ></use>
<path id="path11" d="M 885.9650841474449 537.1719792055204
c 0 40.193299478118995 -9.83453072336954 11.5448838926512 -21.37941461602074 11.5448838926512
S 843.2062549154034 577.3652786836394 843.2062549154034 537.1719792055204
s 9.83453072336954 -11.5448838926512 21.37941461602074 -11.5448838926512
S 885.9650841474449 496.9786797274014 885.9650841474449 537.1719792055204
z" fill="none" stroke="none" style="animation-play-state:paused" ></path>


<use xlink:href="#path-0ictgyise5u-3" x="0" y="0" stroke="#aabbcc" transform="translate(874.5253295898438 554.0186157226562)" style="animation-play-state:paused" ></use>
<path id="path12" d="M 990.4132963771973 146.8273745197701
c 0 45.092135342049 -11.033182051777946 12.951996321652373 -23.98517837343032 12.951996321652373
S 942.4429396303366 191.9195098618191 942.4429396303366 146.8273745197701
s 11.033182051777946 -12.951996321652373 23.98517837343032 -12.951996321652373
S 990.4132963771973 101.7352391777211 990.4132963771973 146.8273745197701
z" fill="none" stroke="none" style="animation-play-state:paused" ></path>


<use xlink:href="#path-0ictgyise5u-1" x="0" y="0" stroke="#bbddff" transform="translate(966.4308471679688 159.77940368652344)" style="animation-play-state:paused" ></use>
<path id="path13" d="M 1065.18865405403 331.200321934962
c 0 39.1471971136325 -9.578569506527101 11.244407681575293 -20.822977188102392 11.244407681575293
S 1023.5426996778251 370.3475190485945 1023.5426996778251 331.200321934962
s 9.578569506527101 -11.244407681575293 20.822977188102392 -11.244407681575293
S 1065.18865405403 292.0531248213295 1065.18865405403 331.200321934962
z" fill="none" stroke="none" style="animation-play-state:paused" ></path>


<use xlink:href="#path-0ictgyise5u-3" x="0" y="0" stroke="#aabbcc" transform="translate(1064.6475830078125 343.9529113769531)" style="animation-play-state:paused" ></use>
<path id="path14" d="M 1151.8177589978322 266.1760513057241
c 0 58.495368389463835 -14.312696520826256 16.801861133143866 -31.114557653970124 16.801861133143866
S 1089.5886436898918 324.671419695188 1089.5886436898918 266.1760513057241
s 14.312696520826256 -16.801861133143866 31.114557653970124 -16.801861133143866
S 1151.8177589978322 207.68068291626028 1151.8177589978322 266.1760513057241
z" fill="none" stroke="none" style="animation-play-state:paused" ></path>


<use xlink:href="#path-0ictgyise5u-2" x="0" y="0" stroke="#ddeeff" transform="translate(1151.817626953125 266.2561950683594)" style="animation-play-state:paused" ></use>
<path id="path15" d="M 1178.3222108849022 539.8118968673036
c 0 48.27900794759674 -11.81294875313537 13.867374623245873 -25.680323376381242 13.867374623245873
S 1126.9615641321398 588.0909048149003 1126.9615641321398 539.8118968673036
s 11.81294875313537 -13.867374623245873 25.680323376381242 -13.867374623245873
S 1178.3222108849022 491.5328889197069 1178.3222108849022 539.8118968673036
z" fill="none" stroke="none" style="animation-play-state:paused" ></path>


<use xlink:href="#path-0ictgyise5u-2" x="0" y="0" stroke="#aabbcc" transform="translate(1175.710693359375 563.576171875)" style="animation-play-state:paused" ></use>
<path id="path16" d="M 1234.1065212183278 70.25197609513192
c 0 60.302047859490486 -14.754756391151925 17.32080098091748 -32.075557372069404 17.32080098091748
S 1169.955406474189 130.5540239546224 1169.955406474189 70.25197609513192
s 14.754756391151925 -17.32080098091748 32.075557372069404 -17.32080098091748
S 1234.1065212183278 9.949928235641437 1234.1065212183278 70.25197609513192
z" fill="none" stroke="none" style="animation-play-state:paused" ></path>


<use xlink:href="#path-0ictgyise5u-3" x="0" y="0" stroke="#bbddff" transform="translate(1220.8095703125 98.84700012207031)" style="animation-play-state:paused" ></use>
<path id="path17" d="M 1326.0226233725582 58.95167101100168
c 0 52.63370744780972 -12.878460332974717 15.11819256479641 -27.996652897771128 15.11819256479641
S 1270.029317577016 111.58537845881139 1270.029317577016 58.95167101100168
s 12.878460332974717 -15.11819256479641 27.996652897771128 -15.11819256479641
S 1326.0226233725582 6.3179635631919595 1326.0226233725582 58.95167101100168
z" fill="none" stroke="none" style="animation-play-state:paused" ></path>


<use xlink:href="#path-0ictgyise5u-2" x="0" y="0" stroke="#bbddff" transform="translate(1317.0992431640625 85.89907836914062)" style="animation-play-state:paused" ></use></g></svg>